{"title":"Lucy.2014.READ.NFO.CAM.XviD-VAiN","uid":10763449,"size":1416315878,"categoryP":"video","categoryS":"movies","magnet":"?xt=urn:btih:6a27a8628cd5de79172a1e419c2f26086aaca360&amp;dn=Lucy.2014.READ.NFO.CAM.XviD-VAiN&amp;tr=udp%3A%2F%2Ftracker.openbittorrent.com%3A80&amp;tr=udp%3A%2F%2Fopen.demonii.com%3A1337&amp;tr=udp%3A%2F%2Ftracker.coppersurfer.tk%3A6969&amp;tr=udp%3A%2F%2Fexodus.desync.com%3A6969","seeders":2,"leechers":0,"uploader":"ali1997a","files":4,"time":1407997583,"description":"\nSilverTorrent - Clean And Verified Torrents Download\n &lt;a href=&quot;\nhttp://i.imgur.com/ky6BGho.png&quot; rel=&quot;nofollow&quot; target=&quot;_NEW&quot;&gt;\nhttp://i.imgur.com/ky6BGho.png&lt;/a&gt;\n &lt;a href=&quot;\nhttp://i.imgur.com/2zu1TGM.jpg&quot; rel=&quot;nofollow&quot; target=&quot;_NEW&quot;&gt;\nhttp://i.imgur.com/2zu1TGM.jpg&lt;/a&gt;\n\niNFO:\n\nLucy 2014 READ NFO CAM XviD-VAiN\n\niMDB http://www.imdb.com/title/tt2872732/\nGeneral\nFormat: AVI\nFormat/Info: Audio Video Interleave\nFile size: 1.30 GiB\nDuration: 1h 22mn\nOverall bit rate: 2 264 Kbps\nWriting application: VirtualDubMod 1.5.10.2 (build 2540/release)\nWriting library: VirtualDubMod build 2540/release\n\nVideo\nID: 0\nFormat: MPEG-4 Visual\nFormat profile: Advanced Simple@L5\nFormat settings, BVOP: 1\nFormat settings, QPel: No\nFormat settings, GMC: No warppoints\nFormat settings, Matrix: Default (H.263)\nCodec ID: XVID\nCodec ID/Hint: XviD\nDuration: 1h 22mn\nBit rate: 2 126 Kbps\nWidth: 640 pixels\nHeight: 288 pixels\nDisplay aspect ratio: 2.222\nFrame rate: 25.000 fps\nColor space: YUV\nChroma subsampling: 4:2:0\nBit depth: 8 bits\nScan type: Progressive\nCompression mode: Lossy\nBits/(Pixel*Frame): 0.461\nStream size: 1.22 GiB (94%)\nWriting library: XviD 1.2.1 (UTC 2008-12-04)\n\nAudio\nID: 1\nFormat: MPEG Audio\nFormat version: Version 1\nFormat profile: Layer 3\nMode: Joint stereo\nMode extension: MS Stereo\nCodec ID: 55\nCodec ID/Hint: MP3\nDuration: 1h 22mn\nBit rate mode: Constant\nBit rate: 128 Kbps\nChannel(s): 2 channels\nSampling rate: 48.0 KHz\nCompression mode: Lossy\nStream size: 75.5 MiB (6%)\nAlignment: Aligned on interleaves\nInterleave, duration: 40 ms (1.00 video frame)\nInterleave, preload duration: 504 ms\n\nE N C O D E R S . N O T E S\n\nSOURCE: video:theol'rbag: audio:theol'rbag\nSAMPLE: Yes\n\nSCREENS:\n &lt;a href=&quot;\nhttp://i.imgur.com/rQLIQZf.png&quot; rel=&quot;nofollow&quot; target=&quot;_NEW&quot;&gt;\nhttp://i.imgur.com/rQLIQZf.png&lt;/a&gt;\n &lt;a href=&quot;\nhttp://i.imgur.com/cy021cV.png&quot; rel=&quot;nofollow&quot; target=&quot;_NEW&quot;&gt;\nhttp://i.imgur.com/cy021cV.png&lt;/a&gt;\n &lt;a href=&quot;\nhttp://i.imgur.com/ocBiPMG.png&quot; rel=&quot;nofollow&quot; target=&quot;_NEW&quot;&gt;\nhttp://i.imgur.com/ocBiPMG.png&lt;/a&gt;\n &lt;a href=&quot;\nhttp://i.imgur.com/PYxYhat.png&quot; rel=&quot;nofollow&quot; target=&quot;_NEW&quot;&gt;\nhttp://i.imgur.com/PYxYhat.png&lt;/a&gt;\n &lt;a href=&quot;\nhttp://i.imgur.com/j18oUPU.png&quot; rel=&quot;nofollow&quot; target=&quot;_NEW&quot;&gt;\nhttp://i.imgur.com/j18oUPU.png&lt;/a&gt;\n &lt;a href=&quot;\nhttp://i.imgur.com/FTwoaNu.png&quot; rel=&quot;nofollow&quot; target=&quot;_NEW&quot;&gt;\nhttp://i.imgur.com/FTwoaNu.png&lt;/a&gt;","torrent":{"xt":"urn:btih:6a27a8628cd5de79172a1e419c2f26086aaca360","amp;dn":"Lucy.2014.READ.NFO.CAM.XviD-VAiN","amp;tr":["udp%3A%2F%2Ftracker.openbittorrent.com%3A80","udp%3A%2F%2Fopen.demonii.com%3A1337","udp%3A%2F%2Ftracker.coppersurfer.tk%3A6969","udp%3A%2F%2Fexodus.desync.com%3A6969"],"infoHash":"6a27a8628cd5de79172a1e419c2f26086aaca360","infoHashBuffer":{"type":"Buffer","data":[106,39,168,98,140,213,222,121,23,42,30,65,156,47,38,8,106,172,163,96]},"announce":[],"urlList":[]}}